<svg id="visual" viewBox="0 0 900 600" width="900" height="600" xmlns="http://www.w3.org/2000/svg" xmlns:xlink="http://www.w3.org/1999/xlink" version="1.1"><g transform="translate(441.26453728423814 286.584805357198)"><path d="M81.7 -148.2C111.7 -124.2 145.9 -114.1 180.2 -91.7C214.4 -69.3 248.7 -34.7 254.8 3.5C260.8 41.7 238.7 83.3 212.4 119.6C186.2 155.8 155.8 186.6 119.8 215.7C83.7 244.9 41.8 272.5 8.4 257.9C-25 243.3 -50 186.6 -85.7 157.2C-121.3 127.8 -167.6 125.6 -197.8 104C-227.9 82.3 -242 41.2 -237.5 2.6C-233 -36 -210 -72 -189.5 -110.4C-169 -148.8 -151 -189.6 -119.8 -212.9C-88.7 -236.2 -44.3 -242.1 -9.3 -226.1C25.8 -210.1 51.7 -172.2 81.7 -148.2" fill="#00a884"></path></g></svg>